<?xml version="1.0" encoding="UTF-8" standalone="no"?>
<!DOCTYPE svg PUBLIC "-//W3C//DTD SVG 1.1//EN"
 "http://www.w3.org/Graphics/SVG/1.1/DTD/svg11.dtd">
<!-- Generated by graphviz version 2.43.0 (0)
 -->
<!-- Title: pastafarianism Pages: 1 -->
<svg width="269pt" height="260pt"
 viewBox="0.00 0.00 269.21 260.00" xmlns="http://www.w3.org/2000/svg" xmlns:xlink="http://www.w3.org/1999/xlink">
<g id="graph0" class="graph" transform="scale(1 1) rotate(0) translate(4 256)">
<title>pastafarianism</title>
<polygon fill="white" stroke="transparent" points="-4,4 -4,-256 265.21,-256 265.21,4 -4,4"/>
<!-- Life -->
<g id="node1" class="node">
<title>Life</title>
<polygon fill="orange" stroke="black" points="107.75,-252 53.75,-252 53.75,-216 107.75,-216 107.75,-252"/>
<text text-anchor="middle" x="80.75" y="-231.8" font-family="Times,serif" font-size="9.00">Ⓜ Life</text>
</g>
<!-- Inverter -->
<g id="node2" class="node">
<title>Inverter</title>
<ellipse fill="ghostwhite" stroke="black" cx="31.75" cy="-162" rx="31.51" ry="18"/>
<text text-anchor="middle" x="31.75" y="-159.8" font-family="Times,serif" font-size="9.00">Inverter</text>
</g>
<!-- Life&#45;&gt;Inverter -->
<g id="edge1" class="edge">
<title>Life&#45;&gt;Inverter</title>
<path fill="none" stroke="black" d="M68.64,-215.7C62.71,-207.23 55.47,-196.89 48.98,-187.61"/>
<polygon fill="black" stroke="black" points="51.66,-185.33 43.06,-179.14 45.92,-189.34 51.66,-185.33"/>
</g>
<!-- check_n_beers -->
<g id="node4" class="node">
<title>check_n_beers</title>
<polygon fill="orange" stroke="black" points="177.75,-180 81.75,-180 81.75,-144 177.75,-144 177.75,-180"/>
<text text-anchor="middle" x="129.75" y="-159.8" font-family="Times,serif" font-size="9.00">Ⓜ check_n_beers</text>
</g>
<!-- Life&#45;&gt;check_n_beers -->
<g id="edge3" class="edge">
<title>Life&#45;&gt;check_n_beers</title>
<path fill="none" stroke="black" d="M92.87,-215.7C98.62,-207.47 105.62,-197.48 111.96,-188.42"/>
<polygon fill="black" stroke="black" points="114.91,-190.3 117.78,-180.1 109.18,-186.29 114.91,-190.3"/>
</g>
<!-- Busy? -->
<g id="node3" class="node">
<title>Busy?</title>
<ellipse fill="gray" stroke="black" cx="31.75" cy="-90" rx="27" ry="18"/>
<text text-anchor="middle" x="31.75" y="-87.8" font-family="Times,serif" font-size="9.00">Busy?</text>
</g>
<!-- Inverter&#45;&gt;Busy? -->
<g id="edge2" class="edge">
<title>Inverter&#45;&gt;Busy?</title>
<path fill="none" stroke="black" d="M31.75,-143.7C31.75,-135.98 31.75,-126.71 31.75,-118.11"/>
<polygon fill="black" stroke="black" points="35.25,-118.1 31.75,-108.1 28.25,-118.1 35.25,-118.1"/>
</g>
<!-- n_beers_lt_2 -->
<g id="node5" class="node">
<title>n_beers_lt_2</title>
<ellipse fill="gray" stroke="black" cx="124.75" cy="-90" rx="42.95" ry="18"/>
<text text-anchor="middle" x="124.75" y="-87.8" font-family="Times,serif" font-size="9.00">n_beers_lt_2</text>
</g>
<!-- check_n_beers&#45;&gt;n_beers_lt_2 -->
<g id="edge4" class="edge">
<title>check_n_beers&#45;&gt;n_beers_lt_2</title>
<path fill="none" stroke="black" d="M128.52,-143.7C127.97,-135.98 127.31,-126.71 126.69,-118.11"/>
<polygon fill="black" stroke="black" points="130.18,-117.83 125.98,-108.1 123.2,-118.33 130.18,-117.83"/>
</g>
<!-- Timeout -->
<g id="node6" class="node">
<title>Timeout</title>
<ellipse fill="ghostwhite" stroke="black" cx="216.75" cy="-90" rx="31.35" ry="18"/>
<text text-anchor="middle" x="216.75" y="-87.8" font-family="Times,serif" font-size="9.00">Timeout</text>
</g>
<!-- check_n_beers&#45;&gt;Timeout -->
<g id="edge5" class="edge">
<title>check_n_beers&#45;&gt;Timeout</title>
<path fill="none" stroke="black" d="M151.26,-143.7C163.4,-133.93 178.63,-121.67 191.35,-111.44"/>
<polygon fill="black" stroke="black" points="193.69,-114.05 199.29,-105.05 189.31,-108.59 193.69,-114.05"/>
</g>
<!-- Have a Beer! -->
<g id="node7" class="node">
<title>Have a Beer!</title>
<ellipse fill="gray" stroke="black" cx="216.75" cy="-18" rx="44.41" ry="18"/>
<text text-anchor="middle" x="216.75" y="-15.8" font-family="Times,serif" font-size="9.00">Have a Beer!</text>
</g>
<!-- Timeout&#45;&gt;Have a Beer! -->
<g id="edge6" class="edge">
<title>Timeout&#45;&gt;Have a Beer!</title>
<path fill="none" stroke="black" d="M216.75,-71.7C216.75,-63.98 216.75,-54.71 216.75,-46.11"/>
<polygon fill="black" stroke="black" points="220.25,-46.1 216.75,-36.1 213.25,-46.1 220.25,-46.1"/>
</g>
</g>
</svg>
