<?xml version="1.0" encoding="UTF-8" standalone="no"?>
<!DOCTYPE svg PUBLIC "-//W3C//DTD SVG 1.1//EN"
 "http://www.w3.org/Graphics/SVG/1.1/DTD/svg11.dtd">
<!-- Generated by graphviz version 2.43.0 (0)
 -->
<!-- Title: pastafarianism Pages: 1 -->
<svg width="989pt" height="116pt"
 viewBox="0.00 0.00 989.32 116.00" xmlns="http://www.w3.org/2000/svg" xmlns:xlink="http://www.w3.org/1999/xlink">
<g id="graph0" class="graph" transform="scale(1 1) rotate(0) translate(4 112)">
<title>pastafarianism</title>
<polygon fill="white" stroke="transparent" points="-4,4 -4,-112 985.32,-112 985.32,4 -4,4"/>
<!-- Pick up Behavior -->
<g id="node1" class="node">
<title>Pick up Behavior</title>
<polygon fill="orange" stroke="black" points="524.03,-108 417.03,-108 417.03,-72 524.03,-72 524.03,-108"/>
<text text-anchor="middle" x="470.53" y="-87.8" font-family="Times,serif" font-size="9.00">Ⓜ Pick up Behavior</text>
</g>
<!-- Get Points -->
<g id="node2" class="node">
<title>Get Points</title>
<ellipse fill="gray" stroke="black" cx="37.53" cy="-18" rx="37.56" ry="18"/>
<text text-anchor="middle" x="37.53" y="-15.8" font-family="Times,serif" font-size="9.00">Get Points</text>
</g>
<!-- Pick up Behavior&#45;&gt;Get Points -->
<g id="edge1" class="edge">
<title>Pick up Behavior&#45;&gt;Get Points</title>
<path fill="none" stroke="black" d="M416.94,-85.37C341.59,-79.43 200.47,-65.24 83.53,-36 80.74,-35.3 77.89,-34.49 75.04,-33.62"/>
<polygon fill="black" stroke="black" points="76.04,-30.26 65.44,-30.42 73.82,-36.9 76.04,-30.26"/>
</g>
<!-- Move To Point -->
<g id="node3" class="node">
<title>Move To Point</title>
<ellipse fill="gray" stroke="black" cx="140.53" cy="-18" rx="47.84" ry="18"/>
<text text-anchor="middle" x="140.53" y="-15.8" font-family="Times,serif" font-size="9.00">Move To Point</text>
</g>
<!-- Pick up Behavior&#45;&gt;Move To Point -->
<g id="edge2" class="edge">
<title>Pick up Behavior&#45;&gt;Move To Point</title>
<path fill="none" stroke="black" d="M416.83,-80.18C361.53,-70.72 273.02,-54.54 197.53,-36 193.69,-35.06 189.72,-34.02 185.75,-32.93"/>
<polygon fill="black" stroke="black" points="186.53,-29.51 175.96,-30.15 184.62,-36.24 186.53,-29.51"/>
</g>
<!-- Check Location -->
<g id="node4" class="node">
<title>Check Location</title>
<ellipse fill="gray" stroke="black" cx="257.53" cy="-18" rx="50.61" ry="18"/>
<text text-anchor="middle" x="257.53" y="-15.8" font-family="Times,serif" font-size="9.00">Check Location</text>
</g>
<!-- Pick up Behavior&#45;&gt;Check Location -->
<g id="edge3" class="edge">
<title>Pick up Behavior&#45;&gt;Check Location</title>
<path fill="none" stroke="black" d="M418.69,-71.97C383.39,-60.36 337.09,-45.15 303.18,-34"/>
<polygon fill="black" stroke="black" points="304.11,-30.63 293.52,-30.83 301.93,-37.28 304.11,-30.63"/>
</g>
<!-- check_object -->
<g id="node5" class="node">
<title>check_object</title>
<ellipse fill="gray" stroke="black" cx="370.53" cy="-18" rx="44.41" ry="18"/>
<text text-anchor="middle" x="370.53" y="-15.8" font-family="Times,serif" font-size="9.00">check_object</text>
</g>
<!-- Pick up Behavior&#45;&gt;check_object -->
<g id="edge4" class="edge">
<title>Pick up Behavior&#45;&gt;check_object</title>
<path fill="none" stroke="black" d="M446.07,-71.88C432.24,-62.2 414.86,-50.03 400.25,-39.81"/>
<polygon fill="black" stroke="black" points="402.22,-36.91 392.02,-34.05 398.21,-42.65 402.22,-36.91"/>
</g>
<!-- get_object -->
<g id="node6" class="node">
<title>get_object</title>
<ellipse fill="gray" stroke="black" cx="470.53" cy="-18" rx="37.56" ry="18"/>
<text text-anchor="middle" x="470.53" y="-15.8" font-family="Times,serif" font-size="9.00">get_object</text>
</g>
<!-- Pick up Behavior&#45;&gt;get_object -->
<g id="edge5" class="edge">
<title>Pick up Behavior&#45;&gt;get_object</title>
<path fill="none" stroke="black" d="M470.53,-71.7C470.53,-63.98 470.53,-54.71 470.53,-46.11"/>
<polygon fill="black" stroke="black" points="474.03,-46.1 470.53,-36.1 467.03,-46.1 474.03,-46.1"/>
</g>
<!-- Take Goal Points -->
<g id="node7" class="node">
<title>Take Goal Points</title>
<ellipse fill="gray" stroke="black" cx="580.53" cy="-18" rx="54.04" ry="18"/>
<text text-anchor="middle" x="580.53" y="-15.8" font-family="Times,serif" font-size="9.00">Take Goal Points</text>
</g>
<!-- Pick up Behavior&#45;&gt;Take Goal Points -->
<g id="edge6" class="edge">
<title>Pick up Behavior&#45;&gt;Take Goal Points</title>
<path fill="none" stroke="black" d="M497.44,-71.88C512.68,-62.18 531.85,-49.97 547.94,-39.74"/>
<polygon fill="black" stroke="black" points="549.96,-42.6 556.52,-34.28 546.2,-36.7 549.96,-42.6"/>
</g>
<!-- Move To Goal -->
<g id="node8" class="node">
<title>Move To Goal</title>
<ellipse fill="gray" stroke="black" cx="698.53" cy="-18" rx="46.38" ry="18"/>
<text text-anchor="middle" x="698.53" y="-15.8" font-family="Times,serif" font-size="9.00">Move To Goal</text>
</g>
<!-- Pick up Behavior&#45;&gt;Move To Goal -->
<g id="edge7" class="edge">
<title>Pick up Behavior&#45;&gt;Move To Goal</title>
<path fill="none" stroke="black" d="M524.31,-72.56C558.46,-62.11 603.6,-48.29 643.53,-36 646.88,-34.97 650.34,-33.9 653.82,-32.83"/>
<polygon fill="black" stroke="black" points="655.09,-36.1 663.62,-29.8 653.03,-29.41 655.09,-36.1"/>
</g>
<!-- Check Goal Location -->
<g id="node9" class="node">
<title>Check Goal Location</title>
<ellipse fill="gray" stroke="black" cx="827.53" cy="-18" rx="64.83" ry="18"/>
<text text-anchor="middle" x="827.53" y="-15.8" font-family="Times,serif" font-size="9.00">Check Goal Location</text>
</g>
<!-- Pick up Behavior&#45;&gt;Check Goal Location -->
<g id="edge8" class="edge">
<title>Pick up Behavior&#45;&gt;Check Goal Location</title>
<path fill="none" stroke="black" d="M524.12,-79.63C581.13,-69.51 673.89,-52.6 753.53,-36 758.85,-34.89 764.38,-33.7 769.91,-32.48"/>
<polygon fill="black" stroke="black" points="770.83,-35.86 779.82,-30.26 769.3,-29.03 770.83,-35.86"/>
</g>
<!-- let_object -->
<g id="node10" class="node">
<title>let_object</title>
<ellipse fill="gray" stroke="black" cx="945.53" cy="-18" rx="35.59" ry="18"/>
<text text-anchor="middle" x="945.53" y="-15.8" font-family="Times,serif" font-size="9.00">let_object</text>
</g>
<!-- Pick up Behavior&#45;&gt;let_object -->
<g id="edge9" class="edge">
<title>Pick up Behavior&#45;&gt;let_object</title>
<path fill="none" stroke="black" d="M524.05,-86.65C606.3,-82.1 768.25,-69.4 901.53,-36 904.19,-35.33 906.91,-34.55 909.63,-33.69"/>
<polygon fill="black" stroke="black" points="911.04,-36.9 919.35,-30.33 908.75,-30.29 911.04,-36.9"/>
</g>
</g>
</svg>
