<?xml version="1.0" encoding="UTF-8" standalone="no"?>
<!DOCTYPE svg PUBLIC "-//W3C//DTD SVG 1.1//EN"
 "http://www.w3.org/Graphics/SVG/1.1/DTD/svg11.dtd">
<!-- Generated by graphviz version 2.43.0 (0)
 -->
<!-- Title: pastafarianism Pages: 1 -->
<svg width="964pt" height="116pt"
 viewBox="0.00 0.00 964.32 116.00" xmlns="http://www.w3.org/2000/svg" xmlns:xlink="http://www.w3.org/1999/xlink">
<g id="graph0" class="graph" transform="scale(1 1) rotate(0) translate(4 112)">
<title>pastafarianism</title>
<polygon fill="white" stroke="transparent" points="-4,4 -4,-112 960.32,-112 960.32,4 -4,4"/>
<!-- Pick up Behavior -->
<g id="node1" class="node">
<title>Pick up Behavior</title>
<polygon fill="orange" stroke="black" points="511.03,-108 404.03,-108 404.03,-72 511.03,-72 511.03,-108"/>
<text text-anchor="middle" x="457.53" y="-87.8" font-family="Times,serif" font-size="9.00">Ⓜ Pick up Behavior</text>
</g>
<!-- Get Points -->
<g id="node2" class="node">
<title>Get Points</title>
<ellipse fill="gray" stroke="black" cx="37.53" cy="-18" rx="37.56" ry="18"/>
<text text-anchor="middle" x="37.53" y="-15.8" font-family="Times,serif" font-size="9.00">Get Points</text>
</g>
<!-- Pick up Behavior&#45;&gt;Get Points -->
<g id="edge1" class="edge">
<title>Pick up Behavior&#45;&gt;Get Points</title>
<path fill="none" stroke="black" d="M403.88,-85.01C330.63,-78.76 195.59,-64.3 83.53,-36 80.74,-35.3 77.89,-34.48 75.04,-33.6"/>
<polygon fill="black" stroke="black" points="76.04,-30.24 65.45,-30.4 73.82,-36.88 76.04,-30.24"/>
</g>
<!-- Move To Point -->
<g id="node3" class="node">
<title>Move To Point</title>
<ellipse fill="gray" stroke="black" cx="140.53" cy="-18" rx="47.84" ry="18"/>
<text text-anchor="middle" x="140.53" y="-15.8" font-family="Times,serif" font-size="9.00">Move To Point</text>
</g>
<!-- Pick up Behavior&#45;&gt;Move To Point -->
<g id="edge2" class="edge">
<title>Pick up Behavior&#45;&gt;Move To Point</title>
<path fill="none" stroke="black" d="M403.93,-79.51C351.15,-69.83 268.36,-53.74 197.53,-36 193.75,-35.05 189.84,-34.02 185.93,-32.94"/>
<polygon fill="black" stroke="black" points="186.85,-29.56 176.27,-30.19 184.93,-36.29 186.85,-29.56"/>
</g>
<!-- Check Points -->
<g id="node4" class="node">
<title>Check Points</title>
<ellipse fill="gray" stroke="black" cx="250.53" cy="-18" rx="44.41" ry="18"/>
<text text-anchor="middle" x="250.53" y="-15.8" font-family="Times,serif" font-size="9.00">Check Points</text>
</g>
<!-- Pick up Behavior&#45;&gt;Check Points -->
<g id="edge3" class="edge">
<title>Pick up Behavior&#45;&gt;Check Points</title>
<path fill="none" stroke="black" d="M407.15,-71.97C372.34,-60.19 326.52,-44.7 293.45,-33.51"/>
<polygon fill="black" stroke="black" points="294.21,-30.08 283.62,-30.19 291.97,-36.71 294.21,-30.08"/>
</g>
<!-- check_object -->
<g id="node5" class="node">
<title>check_object</title>
<ellipse fill="gray" stroke="black" cx="357.53" cy="-18" rx="44.41" ry="18"/>
<text text-anchor="middle" x="357.53" y="-15.8" font-family="Times,serif" font-size="9.00">check_object</text>
</g>
<!-- Pick up Behavior&#45;&gt;check_object -->
<g id="edge4" class="edge">
<title>Pick up Behavior&#45;&gt;check_object</title>
<path fill="none" stroke="black" d="M433.07,-71.88C419.24,-62.2 401.86,-50.03 387.25,-39.81"/>
<polygon fill="black" stroke="black" points="389.22,-36.91 379.02,-34.05 385.21,-42.65 389.22,-36.91"/>
</g>
<!-- get_object -->
<g id="node6" class="node">
<title>get_object</title>
<ellipse fill="gray" stroke="black" cx="457.53" cy="-18" rx="37.56" ry="18"/>
<text text-anchor="middle" x="457.53" y="-15.8" font-family="Times,serif" font-size="9.00">get_object</text>
</g>
<!-- Pick up Behavior&#45;&gt;get_object -->
<g id="edge5" class="edge">
<title>Pick up Behavior&#45;&gt;get_object</title>
<path fill="none" stroke="black" d="M457.53,-71.7C457.53,-63.98 457.53,-54.71 457.53,-46.11"/>
<polygon fill="black" stroke="black" points="461.03,-46.1 457.53,-36.1 454.03,-46.1 461.03,-46.1"/>
</g>
<!-- Take Goal Points -->
<g id="node7" class="node">
<title>Take Goal Points</title>
<ellipse fill="gray" stroke="black" cx="567.53" cy="-18" rx="54.04" ry="18"/>
<text text-anchor="middle" x="567.53" y="-15.8" font-family="Times,serif" font-size="9.00">Take Goal Points</text>
</g>
<!-- Pick up Behavior&#45;&gt;Take Goal Points -->
<g id="edge6" class="edge">
<title>Pick up Behavior&#45;&gt;Take Goal Points</title>
<path fill="none" stroke="black" d="M484.44,-71.88C499.68,-62.18 518.85,-49.97 534.94,-39.74"/>
<polygon fill="black" stroke="black" points="536.96,-42.6 543.52,-34.28 533.2,-36.7 536.96,-42.6"/>
</g>
<!-- Move To Goal -->
<g id="node8" class="node">
<title>Move To Goal</title>
<ellipse fill="gray" stroke="black" cx="685.53" cy="-18" rx="46.38" ry="18"/>
<text text-anchor="middle" x="685.53" y="-15.8" font-family="Times,serif" font-size="9.00">Move To Goal</text>
</g>
<!-- Pick up Behavior&#45;&gt;Move To Goal -->
<g id="edge7" class="edge">
<title>Pick up Behavior&#45;&gt;Move To Goal</title>
<path fill="none" stroke="black" d="M511.31,-72.56C545.46,-62.11 590.6,-48.29 630.53,-36 633.88,-34.97 637.34,-33.9 640.82,-32.83"/>
<polygon fill="black" stroke="black" points="642.09,-36.1 650.62,-29.8 640.03,-29.41 642.09,-36.1"/>
</g>
<!-- Check Goal Points -->
<g id="node9" class="node">
<title>Check Goal Points</title>
<ellipse fill="gray" stroke="black" cx="808.53" cy="-18" rx="58.13" ry="18"/>
<text text-anchor="middle" x="808.53" y="-15.8" font-family="Times,serif" font-size="9.00">Check Goal Points</text>
</g>
<!-- Pick up Behavior&#45;&gt;Check Goal Points -->
<g id="edge8" class="edge">
<title>Pick up Behavior&#45;&gt;Check Goal Points</title>
<path fill="none" stroke="black" d="M511.18,-79.94C568.25,-70.07 661.05,-53.36 740.53,-36 745.45,-34.92 750.57,-33.75 755.68,-32.54"/>
<polygon fill="black" stroke="black" points="756.55,-35.93 765.45,-30.18 754.91,-29.13 756.55,-35.93"/>
</g>
<!-- let_object -->
<g id="node10" class="node">
<title>let_object</title>
<ellipse fill="gray" stroke="black" cx="920.53" cy="-18" rx="35.59" ry="18"/>
<text text-anchor="middle" x="920.53" y="-15.8" font-family="Times,serif" font-size="9.00">let_object</text>
</g>
<!-- Pick up Behavior&#45;&gt;let_object -->
<g id="edge9" class="edge">
<title>Pick up Behavior&#45;&gt;let_object</title>
<path fill="none" stroke="black" d="M511.05,-86.24C591.28,-81.21 747.04,-67.94 875.53,-36 878.34,-35.3 881.21,-34.48 884.09,-33.58"/>
<polygon fill="black" stroke="black" points="885.39,-36.83 893.73,-30.3 883.13,-30.21 885.39,-36.83"/>
</g>
</g>
</svg>
